<?xml version="1.0" standalone="no"?>
<!DOCTYPE svg PUBLIC "-//W3C//DTD SVG 20010904//EN"
 "http://www.w3.org/TR/2001/REC-SVG-20010904/DTD/svg10.dtd">
<svg version="1.0" xmlns="http://www.w3.org/2000/svg"
 width="200.000000pt" height="200.000000pt" viewBox="0 0 200.000000 200.000000"
 preserveAspectRatio="xMidYMid meet">
<metadata>
Created by potrace 1.14, written by Peter Selinger 2001-2017
</metadata>
<g transform="translate(0.000000,200.000000) scale(0.100000,-0.100000)"
fill="#000000" stroke="none">
<path d="M843 1834 c-55 -14 -116 -48 -155 -86 -18 -18 -36 -23 -86 -25 -118
-4 -247 -91 -288 -194 -11 -26 -24 -39 -52 -49 -20 -7 -62 -38 -92 -69 -73
-73 -96 -140 -85 -245 4 -39 6 -82 6 -96 -9 -142 -5 -196 18 -242 13 -26 40
-62 60 -81 60 -58 169 -126 228 -143 64 -19 159 -14 215 9 32 13 36 13 63 -10
91 -76 230 -102 340 -65 l60 21 43 -24 c24 -13 68 -30 99 -37 51 -12 62 -19
116 -82 33 -39 87 -111 120 -160 32 -50 65 -90 72 -90 22 2 146 96 142 108 -2
6 -21 60 -42 120 l-39 110 24 15 c13 9 38 31 55 49 16 19 36 39 44 45 122 103
167 185 158 291 -4 49 -1 63 18 93 13 18 31 57 41 85 34 103 -5 244 -87 311
-27 22 -52 58 -77 112 -61 128 -167 217 -307 258 -53 15 -193 17 -253 2 -26
-6 -39 -3 -70 18 -81 57 -192 76 -289 51z m190 -121 l38 -16 -33 -35 c-50 -52
-114 -80 -166 -72 -50 8 -58 1 -65 -58 -5 -45 -6 -44 58 -55 11 -2 19 -8 18
-14 -12 -62 1 -200 20 -204 4 -1 28 2 52 6 50 7 52 11 36 94 -15 73 2 107 92
194 45 43 98 86 117 94 19 9 69 17 110 19 175 6 319 -91 366 -247 13 -44 25
-64 44 -74 59 -31 110 -112 110 -174 0 -17 -7 -49 -16 -71 l-17 -41 -40 38
c-45 43 -101 126 -110 163 -3 14 -9 50 -12 80 -4 30 -8 56 -10 58 -2 2 -26 1
-53 -3 l-49 -6 4 -52 c3 -29 11 -73 18 -99 16 -54 19 -51 -60 -48 -27 1 -80 3
-117 5 l-68 2 0 -53 0 -54 48 -1 c238 -4 289 -18 366 -97 34 -35 39 -47 42
-93 3 -74 -30 -137 -94 -179 -26 -17 -56 -45 -66 -61 -19 -32 -84 -68 -122
-69 -11 0 -23 -2 -26 -5 -3 -3 10 -48 29 -101 40 -116 41 -131 6 -79 -53 80
-155 185 -178 185 -19 0 -53 10 -123 35 -17 6 -11 13 101 98 94 71 128 84 194
69 l42 -10 7 42 c5 22 8 45 9 51 0 15 -76 33 -123 29 -65 -6 -120 -37 -249
-140 -65 -51 -137 -103 -160 -114 -80 -38 -189 -20 -254 42 -25 24 -26 29 -24
124 2 122 7 137 51 164 18 12 34 24 34 27 0 2 -12 24 -26 49 l-26 44 -40 -23
c-22 -12 -50 -37 -62 -54 -11 -18 -24 -33 -29 -33 -4 0 -31 15 -60 33 -28 19
-74 48 -102 65 l-49 31 -28 -42 c-15 -23 -28 -45 -28 -49 0 -3 45 -33 99 -67
113 -69 138 -101 143 -178 4 -47 2 -53 -20 -63 -70 -32 -170 -20 -232 28 -19
15 -54 40 -77 56 -75 50 -106 163 -67 238 15 30 15 35 -1 81 -37 104 2 204 98
252 28 14 59 25 69 25 20 0 21 3 37 66 13 48 67 108 119 130 40 17 121 23 162
12 21 -6 29 -2 49 28 63 91 187 124 294 77z"/>
</g>
</svg>
